<svg id="Layer_1" data-name="Layer 1" xmlns="http://www.w3.org/2000/svg" viewBox="0 0 347 50"><defs><style>.cls-1{fill:#01000b;}</style></defs><polygon class="cls-1" points="1.44 49.15 6.92 49.15 6.92 28.01 33.18 28.01 33.18 23.02 6.92 23.02 6.92 5.7 36.31 5.7 36.31 0.64 1.44 0.64 1.44 49.15"/><rect class="cls-1" x="47.42" y="0.64" width="5.47" height="48.51"/><path class="cls-1" d="M105.5,15.19v-.14a13.38,13.38,0,0,0-3.74-9.56C98.71,2.44,93.93.64,88,.64H67.11V49.15h5.47V30.3H86.45l14.07,18.85h6.72L92.33,29.33C100,28,105.5,23.23,105.5,15.19M72.58,25.38V5.7h15c7.83,0,12.4,3.6,12.4,9.56v.14c0,6.24-5.2,10-12.47,10Z"/><polygon class="cls-1" points="122.72 27.18 149.19 27.18 149.19 22.19 122.72 22.19 122.72 5.63 152.31 5.63 152.31 0.64 117.24 0.64 117.24 49.15 152.66 49.15 152.66 44.16 122.72 44.16 122.72 27.18"/><polygon class="cls-1" points="210.9 41.04 197.6 0.5 193.09 0.5 179.78 41.04 165.92 0.64 159.96 0.64 177.29 49.5 181.86 49.5 195.24 10.13 208.55 49.5 213.19 49.5 230.51 0.64 224.76 0.64 210.9 41.04"/><path class="cls-1" d="M299,15.19v-.14a13.38,13.38,0,0,0-3.74-9.56C292.25,2.44,287.46.64,281.5.64H260.65V49.15h5.47V30.3H280l14.07,18.85h6.72l-14.9-19.82C293.49,28,299,23.23,299,15.19M266.12,25.38V5.7h15c7.83,0,12.4,3.6,12.4,9.56v.14c0,6.24-5.19,10-12.47,10Z"/><polygon class="cls-1" points="316.26 44.16 316.26 27.18 342.73 27.18 342.73 22.19 316.26 22.19 316.26 5.63 345.85 5.63 345.85 0.64 310.78 0.64 310.78 49.15 346.19 49.15 346.19 44.16 316.26 44.16"/><polygon class="cls-1" points="243.45 0.7 248.56 7.12 235.18 17.58 237.08 17.64 255.2 6.93 244.94 0.68 243.45 0.7"/><polygon class="cls-1" points="242.79 3.97 244.37 6 246.94 5.99 245.35 3.96 242.79 3.97"/><polygon class="cls-1" points="243.64 6 242.03 3.99 239.45 3.98 241.08 6.02 243.64 6"/><polygon class="cls-1" points="247.56 7.18 245.02 7.18 242.44 9.2 244.97 9.21 247.56 7.18"/><polygon class="cls-1" points="243.99 7.18 241.45 7.18 238.82 9.23 241.43 9.19 243.99 7.18"/><polygon class="cls-1" points="238.37 12.35 240.89 12.39 243.49 10.32 240.94 10.36 238.37 12.35"/><polygon class="cls-1" points="239.94 10.35 237.32 10.39 234.72 12.39 237.29 12.45 239.94 10.35"/><polygon class="cls-1" points="240.95 20.07 240.95 21.9 240.95 49.15 246.43 49.15 246.43 21.9 246.43 20.07 246.43 15.86 240.95 19.21 240.95 20.07"/></svg>