<?xml version="1.0" encoding="UTF-8"?>
<!-- Generator: Adobe Illustrator 27.4.0, SVG Export Plug-In . SVG Version: 6.00 Build 0)  -->
<svg xmlns="http://www.w3.org/2000/svg" xmlns:xlink="http://www.w3.org/1999/xlink" version="1.1" id="Layer_2_00000039131285680913148890000006108874347480807845_" x="0px" y="0px" viewBox="0 0 597.1 193.6" style="enable-background:new 0 0 597.1 193.6;" xml:space="preserve">
<style type="text/css">
	.st0{clip-path:url(#SVGID_00000160156020570198625330000011108517794544595363_);}
	.st1{clip-path:url(#SVGID_00000017501251211532616470000001917487104069372291_);}
	.st2{fill:#FFFFFF;}
	.st3{clip-path:url(#SVGID_00000089565963764861103480000015249063354988314522_);}
	.st4{enable-background:new    ;}
	.st5{font-family:'MikadoBoldDEMO';}
	.st6{font-size:37.39px;}
</style>
<g id="Layer_1-2">
	<g>
		<defs>
			<rect id="SVGID_1_" width="392.4" height="193.6"></rect>
		</defs>
		<clipPath id="SVGID_00000034771293641422465780000000751330693475646110_">
			<use xlink:href="#SVGID_1_" style="overflow:visible;"></use>
		</clipPath>
		<g style="clip-path:url(#SVGID_00000034771293641422465780000000751330693475646110_);">
			<g>
				<defs>
					<rect id="SVGID_00000169523439937461368110000015564032324770978710_" width="392.4" height="193.6"></rect>
				</defs>
				<clipPath id="SVGID_00000173131767940399186900000010915955764731574189_">
					<use xlink:href="#SVGID_00000169523439937461368110000015564032324770978710_" style="overflow:visible;"></use>
				</clipPath>
				<g style="clip-path:url(#SVGID_00000173131767940399186900000010915955764731574189_);">
					<path class="st2" d="M368.8,48.2l-1.9,0.2l-5.9,0.5l11.4-21l-51.5,4.9l-9.7,19.5l-3.8,1l-2.9-0.4c-0.1,0-11.4-1.6-19.4-1.7       l-1,0c-0.3,0-0.7,0-1,0c-11.8,0-24.7,3.5-36.4,9.9l-3.8,2.1l-3.4-2.7c-7.1-5.7-16.9-8.9-28.3-9.1c-0.4,0-0.9,0-1.3,0       c-4.2,0-8.5-0.3-12.9,0.6l-10.6-0.6l8.1-18.2l0.1-0.2c4.1-8.6,9.1-17.2,12.1-22.2L102.2,44.1l-1.5,62.3l-5.6,1.5l-19.5,3.9       l-0.2,0c-0.2,0-1.3,0.2-2.2,0.2L46,113.2c-0.1,0-0.2,0-0.3,0c-0.4,0-0.7,0-0.9,0H44l-26.2,0.5l-8.1,32.4l18-0.2h0.2       c0.1,0,0.2,0,0.3,0c0.2,0,0.5,0,0.7,0c0.1,0,0.2,0,0.4,0l33.7-0.3c0.4,0,1.1,0,1.6,0l14,0.4c0.2,0,0.5,0,0.5,0h0l0.4,0       l20.3-0.2l-0.2,3.7l48-0.9l2.9-7.9l6.2,2.4c5.6,2.2,11.8,3.3,18.6,3.4c0.8,0,1.5,0,2.3,0c9.1,0,17.5-1,25-3       c0.3,0.1,0.6,0.1,0.9,0.1c0.3,0,0.5,0,0.8-0.1c5.8-0.9,11.2-2.4,16-4.2l1,0.8c5.8,4.8,14.5,7.5,25.1,7.8l1.3,0h0.6       c8.9,0,18.5-2,27.8-5.8l3.2-1.3l2.9,1.9c3.8,2.6,8.5,4.4,13.9,5.3c1.3,0.2,4.5,0.5,6.6,0.6c0.3,0,0.6,0,1,0       c13.1,0,29.2-4.2,37.6-8.2l6-3l17.5-38.3l-19.5,5c-0.2,0.1-15.7,4.9-15.7,4.9L345.2,79l22.2-2.1l15.2-30l-13.8,1.3       C368.9,48.2,368.8,48.2,368.8,48.2"></path>
					<path d="M349.5,109.9c-1.6,0.6-5.8,2-10.3,3.4c-4.4,1.4-9.1,2.8-11.6,3.4c-1.4,0.3-3.7,0.6-5.8,0.6c-0.9,0-1.7-0.1-2.4-0.2       c-0.7-0.1-1.2-0.3-1.5-0.5l0,0c-0.3-0.2-0.5-0.4-0.6-0.7c-0.1-0.3-0.2-0.6-0.2-0.9c0-0.4,0.1-0.8,0.1-1.1       c0-0.1,0.1-0.3,0.1-0.3l0-0.1l0,0l20.1-38.8l22.2-2l10.6-20.4l-22.2,2.1l9.7-18L325,39.6l-9.4,17.9l-15.2,1.5l-11.9,20.3       l16.8-1.6l-17.9,34l10.2,15.4c-1.3,1.1-5.2,4.5-10.8,7.6l-0.8,0.4l0.6,0.7c0.2,0.2,0.5,0.5,0.7,0.7c0.3,0.2,0.5,0.5,0.7,0.6       l0,0l0,0c3.4,2.6,7.7,4.4,12.7,5.3c1.4,0.2,3.3,0.4,5.5,0.4c4.6,0,10.6-0.5,16.5-1.7c5.9-1.2,11.6-3.1,15.7-5.9l0.1-0.1       l13.2-26.2l-1.7,0.6C350.2,109.6,349.9,109.7,349.5,109.9 M243.1,97L243.1,97L243.1,97L243.1,97 M291.1,126.8l0.5-0.4       l-12.1-17.6l-0.6,0.4l-8.2,5.4c-5,3.3-9,4.6-12.6,4.7l0,0c-0.2,0-0.4,0-0.6,0c-0.9,0-1.8-0.1-2.4-0.3c-0.7-0.2-1.2-0.5-1.6-0.9       l0,0c-0.4-0.4-0.5-0.7-0.5-1c0-0.2,0-0.3,0.1-0.5c0-0.1,0.1-0.3,0.1-0.4c0.1-0.2,0.1-0.3,0.3-0.5c0.2-0.2,0.4-0.4,0.8-0.7       c0.3-0.2,3.1-1.8,12.5-4.9h0l0,0h0c4-1.3,8-2.6,11.6-3.9c3.6-1.3,6.8-2.6,9.3-4.1l0.2-0.1l10.8-20.3l-17.1,1.4l12.6-21.5       l-0.8-0.3c-3.7-1.5-9.1-2.6-13.7-2.7l0,0c-0.4,0-0.8,0-1.2,0c-6.5,0-13.6,1.5-20.6,4c-6.9,2.5-13.7,6-19.2,10l-0.5,0.4       L248.5,91l9.1-6l0,0c4.7-3.2,8.4-4.6,11.8-4.7c0.1,0,0.3,0,0.4,0c0.9,0,1.7,0.1,2.3,0.3c0.7,0.2,1.2,0.5,1.5,0.8l0,0l0,0       c0.3,0.4,0.4,0.7,0.4,1c0,0.2,0,0.4-0.1,0.5c0,0.2-0.1,0.3-0.1,0.4c-0.1,0.2-0.2,0.4-0.3,0.6c-0.1,0.2-0.4,0.4-0.7,0.7h0v0       c0,0-0.2,0.2-0.6,0.4c-1.2,0.7-4.3,2.2-11.1,4.5l-0.1,0l0,0c-7.5,2.7-12.4,4.7-17.8,7.5l-5.2,2.7l-0.6,1.4       c-2,4.7-5.2,11.9-10.5,18l-0.6,0.8l5.2,2.1l0,0c0,0,0.1,0,0.1,0c0.8,0.3,3.4,1.4,3.8,1.5l3.6,1.4l-2.3,3       c-1.7,1.9-3.9,4.3-7.9,6.9l-0.8,0.5l0.7,0.6c5.2,4.3,12.7,6,21,6.3c0.5,0,1.1,0,1.6,0C265.5,142.3,279.8,136.5,291.1,126.8        M222.1,135c3.5-1.8,6.1-3.4,7.8-4.8c0.9-0.7,1.5-1.3,2-1.7c0.2-0.2,0.4-0.4,0.6-0.6c0.2-0.2,0.3-0.3,0.4-0.5l0.4-0.7l-0.8-0.3       c-0.4-0.2-4.1-1.6-4.1-1.6l-4.6-1.8c-2.6-1.1-7.1-3.4-12.4-6.6c-5.3-3.2-11.5-7.4-17.7-12.3l0,0c-6.2-5-12.8-11.3-18.1-17.5       c-2.6-3.1-4.9-6.2-6.7-9.1c-1.8-2.9-3-5.6-3.6-7.9c0-0.2-0.1-0.3-0.1-0.5c0-0.2,0-0.4,0.1-0.7l0,0v0c0.1-0.2,0.2-0.4,0.4-0.8       l0,0h0c0.8-1.1,2.6-2.3,5.3-3.6c2.7-1.3,6.4-2.7,10.9-4.1L188,58l-6,0.4c-9.3,0.6-17.4,2.2-23.3,3.8c-2.9,0.8-5.3,1.6-7.1,2.3       c-0.9,0.3-1.6,0.7-2.1,1c-0.3,0.2-0.5,0.3-0.7,0.4c-0.2,0.1-0.3,0.3-0.5,0.5l-0.1,0.1l0,0.2l0,0c-0.1,0.4-0.2,0.8-0.2,1.2       c0,1.1,0.3,2.7,0.7,4.7l0.1,0.5l0,0c1.2,5.1,4.2,10.9,8.6,17.1s10.3,12.8,17.3,19.3l0,0c12.6,11.6,26.3,20,34.4,23.3l0,0       c0.3,0.1,0.5,0.3,0.6,0.4c0.1,0.1,0.1,0.2,0.1,0.2c0,0,0,0.1,0,0.2v0l0,0.1c-0.1,0.2-0.3,0.4-0.6,0.7c-0.6,0.5-1.5,1.1-2.7,1.6       c-3.5,1.7-13.5,4.8-19.9,6.3l7.1-0.5C204.9,141.1,214.4,138.8,222.1,135L222.1,135L222.1,135L222.1,135z M177.8,140       c7.7,0,15.8-1.9,23.5-5.5l1.3-0.6l-1.3-0.7c-9.4-4.9-20.4-12.7-29.4-21c-2.3-2.2-4.6-4.4-6.7-6.7l-0.7-0.7l-0.5,0.9       c-0.7,1.5-1.4,3-2,4.4l0,0c-0.1,0.3-0.2,0.7-0.4,0.9v0l0,0c-1.4,4.1-2.2,8.2-2.3,12.3c-2.3-3.6-3.5-7.7-3.5-12.3       c0-3.3,0.6-6.8,1.9-10.4c0,0,0.2-0.4,0.4-0.9c0.2-0.5,0.4-1,0.5-1.2l0.2-0.4l-0.3-0.3c-2.2-2.8-4.3-5.5-6-8.1l-0.6-1l-0.6,1       c-1.3,2.3-2.4,4.5-3.2,6.9c-0.1,0.3-0.3,0.6-0.4,0.9l0,0v0c-1.6,4.5-2.4,8.9-2.4,13.1c0,6,1.6,11.6,4.8,16.3       c2.7,4,6.4,7.1,10.9,9.3c4.5,2.2,9.7,3.4,15.4,3.6C176.8,140,177.3,140,177.8,140 M145.5,130.7l-0.2-0.3       c-1.8-2.2-3.1-5.1-4.1-8.4s-1.4-6.8-1.4-10.2c0-2.5,0.2-4.8,0.7-7c1-4.2,2.8-8.7,4.4-12.1c0.8-1.7,1.5-3.2,2.1-4.2       c0.3-0.5,0.5-0.9,0.6-1.2c0.1-0.1,0.1-0.2,0.2-0.3s0.1-0.1,0.1-0.1l0.2-0.3l-0.2-0.3c-3.9-7.5-4.6-14.7-4.6-18.4       c0-0.9,0-1.5,0.1-2c0-0.1,0-0.2,0-0.3c1.6-0.9,8.8-4.8,16.7-6.8c3.4-0.8,8.1-1.8,12.7-2.5l0.4-0.1l0.1-0.4c0,0,0.1-0.2,0.2-0.5       c0.7-2.1,4.2-11.5,11-25.5l0.7-1.5l-70.9,22.6l0,1.1l-5.3,92.8l1.4,0.1l31.1,0.2l0.1-0.6c0.2-1.2,0.4-2.1,0.9-4       c0.5-1.9,1.3-4.6,2.8-9.4L145.5,130.7L145.5,130.7z M99,114.8l-22.1,1.8l-0.1,0.6l-2.8,24.4l21.9,0L99,114.8L99,114.8z        M170.3,69.4l-0.5,0.3l0.2,0.6c1.1,2.5,2.6,5.2,4.4,7.8l0.4,0.6l0.6-0.4c8.4-5.9,17.9-9.1,26.9-9.1c0.4,0,0.8,0,1.1,0l0,0       c4.2,0.1,8,0.9,11.3,2.5c-11.5,0.7-23.8,5.6-33.9,13.5l-0.6,0.5l0.5,0.6c4.5,5.1,9.8,10.1,16,15.1l0,0l0,0l0,0l0,0l0,0       c5.8,4.6,11.4,8.3,16,11c4.6,2.7,8.1,4.6,9.9,5.4l0.5,0.3l0.4-0.4c4.3-5.1,7.1-10.2,9.6-15.9l0,0v0c0.1-0.1,0.2-0.5,0.4-0.9       c0.2-0.4,0.3-0.8,0.4-1.1v0l0,0c1.1-3.1,2.7-7.4,2.7-12.2c0-0.3,0-0.6,0-0.9c0-0.1,0-0.2,0-0.2c0-2.3-0.6-6-2-9.7       c-1.4-3.7-3.6-7.5-6.9-9.9c-2.7-2.8-6.2-4.8-10.2-6.2c-4-1.4-8.4-2.1-12.9-2.2c-0.5,0-1,0-1.5,0       C192.2,58.4,180.6,62.3,170.3,69.4 M71.3,116.8l-20.4,0.6l-0.2,0.5l-7.3,23.9l23.8,0L71.3,116.8L71.3,116.8z M37.1,141.6       l7.7-23.6l-22.1,0.4l-6.3,23.4h1L37.1,141.6L37.1,141.6z M342,99.2l32.8-8.4l-24,52.7l-8.1,4c-9.9,4.6-27.5,9-41.5,8.8       c-2.4,0-5.9-0.3-7.7-0.6c-6.4-1.1-11.9-3.3-16.4-6.3c-10.3,4.2-21,6.4-31.3,6.2h0l-1,0c-12.1-0.4-22.1-3.6-29.1-9.3       c-11.2,5.2-25,8.1-42,7.8c-7.8-0.1-14.8-1.5-20.8-3.9l-2.1,5.8l-0.7,0.1L92,157l-0.7,0l0.2-3.2l0-0.6l-13.1,0.1       c-0.4,0-0.8,0-0.8,0c0,0-0.3,0-0.7,0L63,152.9c-0.4,0-1,0-1.4,0l-33.9,0.3c-0.4,0-0.7,0-0.7-0.1s-0.3,0-0.7,0l-25.5,0.3l-0.7,0       l11.2-44.7l0.2-0.6l31.1-0.6c0.4,0,0.8,0,0.9,0c0.1,0,0.6,0,1-0.1l27.3-1.2c0.4,0,1.1-0.1,1.4-0.2l19.2-3.8l0.7-0.2l1.5-61.5       l0-0.6L220.4,0L220,0.6l-3.9,5.9c-3.7,5.3-11.7,18.6-17.1,30.1l-4.6,10.5c5.2-1,10.4-1.5,15.6-1.4c13.2,0.2,24.3,4.1,32.2,10.5       c12.9-7.1,27.2-10.9,40.6-10.7l1,0c8.6,0.1,21.2,2.5,21.2,2.5l10.3-20.6l67.1-6.4l-11.4,21l21.3-2l-22.1,43.7L348,85.9       l-7.1,13.6C341.3,99.4,341.6,99.3,342,99.2 M196.8,101.4L196.8,101.4L196.8,101.4z"></path>
				</g>
			</g>
			<g>
				<defs>
					<rect id="SVGID_00000035521947953531768930000014234376534390581165_" width="392.4" height="193.6"></rect>
				</defs>
				<clipPath id="SVGID_00000089559556542901598150000012057983783917436557_">
					<use xlink:href="#SVGID_00000035521947953531768930000014234376534390581165_" style="overflow:visible;"></use>
				</clipPath>
				<g style="clip-path:url(#SVGID_00000089559556542901598150000012057983783917436557_);">
					<rect x="36.1" y="148.9" width="319.1" height="40.6"></rect>
				</g>
			</g>
			<g class="st4">
				<path class="st2" d="M48.8,179.6c-0.2-0.7,1.9-5.5,2.3-5.3c1,0.5,4.1,2.5,7.6,2.5c2.4,0,4-0.7,4-2.3c0-1.2-1-2.1-5.3-2.9      c-5.4-1-8.5-3.3-8.5-8.2c0-4.3,3.9-8,10.9-8c4.4,0,8.1,1,9.7,2.2c0.5,0.4-2,5.2-2.4,5.2c-0.6-0.3-3.7-1.6-7.2-1.6      c-2.5,0-3.7,0.9-3.7,2.1c0,1.2,0.7,1.8,4.7,2.6c5.4,1.1,9.5,3.1,9.5,8.2c0,4-3.5,8.1-11.6,8.1C54.3,182.2,50.3,180.6,48.8,179.6      z"></path>
			</g>
			<text transform="matrix(1.11 0 0 1 74.498 182.0601)" class="st2 st5 st6"> </text>
			<g class="st4">
				<path class="st2" d="M85,156.2c0.2,0.7-0.4,10.6-0.4,14.4c0,4.1,1.6,5.6,4.8,5.6c3.7,0,4.8-2.4,4.8-5.5c0-4.7-0.3-13-0.3-14.9      c0.5-0.3,7.7-0.6,7.8-0.2c0.2,0.7,0.3,11,0.3,15.5c0,6.1-2.5,11.6-12.5,11.6c-7.8,0-12.5-3.3-12.5-11.4c0-3.6,0.2-13.1,0.6-15.1      C77.7,155.6,84.8,155.9,85,156.2z"></path>
				<path class="st2" d="M110,182.2c-0.2-1.8,0-23.4,0.3-26c2.1-0.2,6.6-0.4,9.8-0.4c8,0,12.5,2.8,12.5,9.1c0,3.9-2,6.2-5.3,7.4      c3.2,3.4,6.4,8,6.3,8.1c-0.5,0.6-5.2,2.4-6.5,2.3c-0.1,0-3.7-5.3-7.2-9.3c-0.2,0-0.4,0-0.5,0c-0.7,0-1.7,0-2.2-0.1      c0,2.6,0,7.7-0.2,8.7C116.7,182.2,110.1,182.4,110,182.2z M120.7,168.2c2.7,0,4.6-1,4.6-3.2c0-2.1-1.2-3.4-4.8-3.4      c-0.8,0-1.9,0-2.7,0.1c0,1,0,5.1,0,6.4C118.5,168.2,119.8,168.2,120.7,168.2z"></path>
			</g>
			<text transform="matrix(1.11 0 0 1 137.4985 182.0601)" class="st2 st5 st6"> </text>
			<g class="st4">
				<path class="st2" d="M140.9,182.2c-0.1-1.2-0.5-23.3-0.3-26.2c1.7-0.2,19.6-0.3,20,0c0.3,0.6,0.3,4.5,0.1,5.7      c-1.2,0.1-9.5,0.1-12.8,0l0.2,6.6c3.6,0,9.9,0.1,10.2,0.3c0.5,0.3,0.2,4.9,0.2,5c0,0.2-6.3,0.2-10.2,0.1      c0.1,3.1,0.1,7.2,0.1,8.4C148,182.3,141.2,182.4,140.9,182.2z"></path>
			</g>
			<text transform="matrix(1.11 0 0 1 164.5869 182.0601)" class="st2 st5 st6"> </text>
			<g class="st4">
				<path class="st2" d="M184.8,168.6c2.6,0.5,5.4,2.7,5.4,6.4c0,5-4.3,7.3-11.6,7.3c-3.9,0-10.6-0.3-10.8-0.4      c-0.2-0.2-0.5-25.2-0.3-25.5s7.7-0.4,8.3-0.4c6.6,0,12.5,1.6,12.5,7.1c0,3-1.4,4.4-3.4,5.4V168.6z M174.5,166.4c0.5,0,1,0,1.8,0      c3,0,4.6-1,4.6-2.7c0-2.1-2.6-2.7-4.4-2.7c-0.8,0-1.5,0.1-1.9,0.1C174.5,161.9,174.5,166.4,174.5,166.4z M174.8,176.9      c1,0.1,1.8,0.2,2.8,0.2c3.3,0,4.7-1.2,4.7-2.9c0-1.9-1.8-3-5-3c-1,0-1.7,0.1-2.5,0.1C174.8,172,174.8,176.9,174.8,176.9z"></path>
			</g>
			<text transform="matrix(1.11 0 0 1 194.5498 182.0601)" class="st2 st5 st6"> </text>
			<g class="st4">
				<path class="st2" d="M224.3,169.4c0,6.6-4.4,13.4-14.3,13.4c-8.8,0-14.4-5.6-14.4-14c0-6.8,4.7-13.4,14.2-13.4      C218.6,155.4,224.3,160.7,224.3,169.4z M210,161.5c-4.3,0-6.7,3-6.7,7.7c0,4.2,2.5,7.5,6.5,7.5c4.4,0,6.5-3.1,6.5-7.7      C216.3,163.9,213.7,161.5,210,161.5z"></path>
			</g>
			<text transform="matrix(1.11 0 0 1 227.6704 182.0601)" class="st2 st5 st6"> </text>
			<g class="st4">
				<path class="st2" d="M246.8,176.8c-1,0-7.3,0-8.8,0c-0.5,1.5-1.7,5.2-2,5.5c-0.2,0.1-7.2-0.3-7.7-0.6c0.8-2.7,8.8-25.5,9.2-25.7      c0.4-0.2,8.5-0.4,9.5-0.3c0.1,0,8.8,21.8,9.7,26c-0.9,0.5-7.6,0.7-7.7,0.7C248.7,181.7,247.3,178.2,246.8,176.8z M242.4,161.8      c-0.6,1.9-2.4,7.4-3.3,9.8c1.4,0,5.2-0.1,6.9-0.1c-1-2.6-2.8-8-3.3-9.8C242.6,161.8,242.5,161.8,242.4,161.8z"></path>
				<path class="st2" d="M263.3,182.2c-0.2-1.8,0-23.4,0.3-26c2.1-0.2,6.6-0.4,9.8-0.4c8,0,12.5,2.8,12.5,9.1c0,3.9-2,6.2-5.3,7.4      c3.2,3.4,6.4,8,6.3,8.1c-0.5,0.6-5.2,2.4-6.5,2.3c-0.1,0-3.7-5.3-7.2-9.3c-0.2,0-0.4,0-0.5,0c-0.7,0-1.7,0-2.2-0.1      c0,2.6,0,7.7-0.2,8.7C270,182.2,263.3,182.4,263.3,182.2z M274,168.2c2.7,0,4.6-1,4.6-3.2c0-2.1-1.2-3.4-4.8-3.4      c-0.8,0-1.9,0-2.7,0.1c0,1,0,5.1,0,6.4C271.8,168.2,273,168.2,274,168.2z"></path>
				<path class="st2" d="M294.2,156c1-0.2,5.8-0.3,9.1-0.3c9.7,0,15.6,5.7,15.6,13.3c0,7.8-4.6,13.5-16,13.5c-3.5,0-8.1-0.3-9-0.5      C293.7,179.7,293.9,158.8,294.2,156z M303.4,161.9c-1,0-1.7,0-2.2,0.1c0,4.3-0.1,9.9-0.2,14.2c0.7,0.1,1.6,0.1,2.7,0.1      c3.2,0,7.6-0.9,7.6-7C311.2,164.9,307.9,161.9,303.4,161.9z"></path>
			</g>
			<text transform="matrix(1.11 0 0 1 323.5728 182.0601)" class="st2 st5 st6"> </text>
			<g class="st4">
				<path class="st2" d="M324.2,179.6c-0.2-0.7,1.9-5.5,2.3-5.3c1,0.5,4.1,2.5,7.6,2.5c2.4,0,4-0.7,4-2.3c0-1.2-1-2.1-5.3-2.9      c-5.4-1-8.5-3.3-8.5-8.2c0-4.3,3.9-8,10.9-8c4.4,0,8.1,1,9.7,2.2c0.5,0.4-2,5.2-2.4,5.2c-0.6-0.3-3.7-1.6-7.2-1.6      c-2.5,0-3.7,0.9-3.7,2.1c0,1.2,0.7,1.8,4.7,2.6c5.4,1.1,9.5,3.1,9.5,8.2c0,4-3.5,8.1-11.6,8.1      C329.8,182.2,325.7,180.6,324.2,179.6z"></path>
			</g>
		</g>
	</g>
	<rect x="205.2" y="143.5" width="15.6" height="8"></rect>
	<path d="M385.7,168.3c0,0.2,0.1,1.7,0,1.9c-0.5,0.2-4.2,0.2-4.3,0.1c-0.1-0.4-1.4-23.2-0.6-24.1c0.8-0.8,5.2-0.2,5.4,0   c0.2,0.2,0.2,9,0.2,9.7c0.3-0.4,2-1.8,4.4-1.8c3.3,0,6.4,2.6,6.4,7.7c0,5.9-3.2,8.5-6.8,8.5C387.9,170.3,386,168.7,385.7,168.3   L385.7,168.3z M389.2,158.7c-1.9,0-3.1,1.3-3.1,3.4c0,1.9,1.1,3.4,3.1,3.4s3.3-1.2,3.3-3.4C392.5,160.1,391.1,158.7,389.2,158.7z"></path>
	<path d="M405,177.1c-1.2,0.1-4.5-1.5-4.8-1.9c0-0.2,2.8-5.9,3.1-7c-1.1-2.3-5.2-12.5-5.2-13.3c0-0.3,4.4-1,4.8-1c0.4,0,3.3,9,3.3,9   s3.5-9,3.6-9c0.2,0,4.8,0.9,4.8,1.1C414.1,157.2,405.4,176.6,405,177.1L405,177.1z"></path>
	<path d="M441.1,104.6c2.4-7.2,3.5-15.4,10.4-20.3c-1,12.9-1.6,28.1,7,38.6c4.7,4.4,9.8,9.4,12.6,14.9c1,3.5-3.6,4.3-4.8,7   c-2.3,3.3-3.6,7.1-3.7,11.4c-0.2,0.3-0.5,0.1-0.7,0.2c-1.2-1.8-1.2-4-2.1-5.9c-1-3.3-4.8-5.4-4.7-9.1c0.2-4.4,2.2-9.3-0.1-13.3   c-1.5-4.1-3.7-7.9-6.7-11.3c-3.3,4.1-0.5,9.5,0.8,13.6l1.7,3.4c-3-2.3-6.5-5.7-8.1-9.4c-0.4,8.7,4.5,16.1,11.8,21.2   c2.4,2.8,2.9,6.4,3.4,10.1c-2.6-0.4-2.3,2.6-3.5,4c-4,10.1-2.2,22.9,4.6,31.1v0.5c-7.5-5.7-12.5-13.6-14.5-22.2   c-2.6-10.5-0.9-22.4-4.7-32.4c-1.6-3.3-3.9-6.3-4-10.2c-0.2-9.4,1.4-18.6-5.1-25.4C434.7,99.5,438,102.2,441.1,104.6L441.1,104.6z    M453.1,87.3c0.6,9.9,2.1,19.3,6.5,27.5c2.8,4.9,8.2,8.6,11.8,13.3l4.3,9.5c0.9-2.6,3.8-4.2,5.9-5.9c1-8.5-8.5-9.8-12.5-15.7   c-1.7-2.6-2.6-6.3-1.4-9.5c5.4,2.7,10.1,7.7,13.3,12.8c2.8,3.6,1.7,9.6,2.6,13.2l0.4-1.1c1.4-3.9,5.6-2.8,8.5-3.4   c0-4.9-0.4-9.7-3.6-13.3l-16-13c-6.1-5.7-9-13.3-8.4-21.8c0.1-3.1,2.1-5.6,1.6-8.8c-0.4-0.9-1-1.9-2-2.2c-0.4,3.2-0.9,6.3-1.7,9.2   C461.7,82.5,457.3,86.3,453.1,87.3L453.1,87.3z M459.9,92.8c0.6-0.4,1.6,0.5,1.4,1.4c-0.2,3.6,3,8.2-0.1,11.1   C459.7,101.5,459.3,97,459.9,92.8L459.9,92.8z M471.1,86.6c0.9,8.7,10.4,13.3,17.5,15.3c7.4,5.4,6.7,15.1,7.6,23.4   c3.2-1.6,7.5-1.7,11-1l0.3-5.5c-0.6-6.8-6.4-11.5-9.4-17.4c-1.3-3.6-0.8-8.3,2-11.1c3.9-3.5,9.6-2.6,13.6-6.1   c1.9-2.5,1.7-6.7,0.7-9.6c-1.2,1.8-2.6,3.8-4.5,5.1c-4.2,0.9-7.8-1.6-10.4-5.1c0,1.2,0.1,2.9-0.1,4.2c-3.2,5.4-9.2,9.8-9,16.6   c-2.5-1.5-4.9-3.7-5.7-6.5c-0.8-3-0.1-6,2.4-8c-6.3-0.6-12.2-6.1-13.9-12.1C472.1,74.6,470.8,80.4,471.1,86.6L471.1,86.6z    M510.2,124.8c2.9,0.4,5.7,1.2,7.7,3.5l1.1-2.2c3.3-5.9-1.8-15.3,5.9-18.8c1.1,0.1,1.9,0.9,2.7,1.7c3.9,7.9-6.8,12.1-6.3,19.8   l3.2-0.2c2.3,0.4,3.6,3,5.2,4.6l0.3-1.6c6.5-4.3,1.6-11.9,2.5-18c0.5-3.2,3.1-6.2,6-7.8c9.8-5.8,12-16.6,11.6-27.1   c-1.6,2.2-4,3.6-6.8,2.8c-3.4-0.8-4.5-4.4-4.9-7.3c-1.6,0.8-2.8,2.2-3.4,3.8c-0.6,6.3,1.4,12.1,3.1,17.8c-0.5,2.9,0.2,7.1-3.5,7.9   c-4.3,1-6.1-6.5-10.7-3.7c0.5-6.2,4.3-11,8.4-15.7c-2.6-0.3-5.5-0.2-7.4-1.9c0.3-2.2,0.3-4.7-1.1-6.4c-0.8-0.3-1.9-1.1-2.8-0.4   l0.8,2.2c1,3.4-1.3,5.8-3.5,8.1c-6.4,6.3,3.4,14-3,20.2C510.8,111.2,508.5,117.9,510.2,124.8L510.2,124.8z M535.6,133.9   c4.7,1.1,8.6,5.5,10.7,9.7c-0.2-3.5,1.3-6.3,2.5-9.1c2-5.8,9.8-5.7,10.4-11.8c-2.9,2.2-5.9,5.9-10,6.2c-1.5,0-3.3,0-4.7-0.6   c2.6-2.5,1-6.1,0.8-9.2c-0.3-1.5-1.6-2.6-1.5-4.1c0.6-0.2,1-0.8,1.8-0.5c2.5,2.8,3.2,7.3,1.8,10.9c2.9,0.2,5-1.7,6.2-4.1   c-0.7-5.4,1.3-10.1,4.7-13.4c-2.2,0.9-4.3,1.9-6.7,2.4c-0.9-0.3-1.3-1.2-1.4-2.1c0.7-5,4.5-9.1,8.3-12.4c1.8,2.1,3.7,4,3.5,6.9   c-1.1,7.1-2.5,14.2-5.9,20.3c2.6-0.8,4.8-3.4,6.4-5.6c3.6-7.8,8.1-15.8,6.5-25.2c-1.2,0.5-2.8,0.3-4.1,0.2   c-7.5-0.3-7.4-8.6-9.8-13.5c0.1,2.2-0.8,4-0.3,6.2c0.6,11.2-9.2,18.1-15.8,26.1C538.9,119,539.6,127.3,535.6,133.9L535.6,133.9z    M550.5,144.8l2.2,0.7c5.5,2.2,4.4,8.4,6.9,12.4l4.5-7.2c3.9-4.8,1.4-10.9,2.1-16.9c1.8-4.7,5.6-8.5,8.4-12.8   c0.4,5.4-0.9,10.8-3.2,15c3.7-1.2,6.8-4.9,9.5-7.5l-0.4,3c-1.8,10.9-12.6,17.6-18.8,26.7l3.6,4.9c5.3,8.3,2,19.7-2.6,27.2   c2.3-1.6,4.6-3,6.6-5.1c8.5-8.7,11.6-21.2,8.2-33.3c0.3-4.9,4.1-8.4,5.9-12.6c2.2-12.2,3.5-24.7,13.6-33.6   c-5.4,0.3-10.3,2.1-13.9,6.3c-1-9.4-4.7-17.7-8.2-26.1c1.5,11.5-0.1,23.9-5.9,33.4C564.3,128.9,549.9,132.8,550.5,144.8   L550.5,144.8z"></path>
</g>
</svg>
